PathFileType	4	(X/Y/Z)	/Users/itak/Documents/Research/Walk-IL/dataset/trc/00285_00010.trc
DataRate	CameraRate	NumFrames	NumMarkers	Units	OrigDataRate	OrigDataStartFrame	OrigNumFrames
100.000000	100.000000	4	54	mm	100.000000	377	604
Frame#	Time	RPSI			LPSI			L3			STRN			T10			C7			CLAV			RBAK			LBAK			LSHO			LUPA			LAEL			LAOL			LWTS			LWPS			LFRA			LIFD			LHPS			LHTS			RSHO			RUPA			RAEL			RAOL			RWTS			RWPS			RFRA			RHTS			RHPS			RBHD			LFHD			RFHD			LBHD			LHIP			RASI			LASI			LKNE			LTHI			LANK			LTIP			LTOE			LMT1			LMT5			LHEE			RKNE			RTHI			RANK			RTIP			RTOE			RMT1			RMT5			RHEE			RIFD			RHIP			*53			
		X1	Y1	Z1	X2	Y2	Z2	X3	Y3	Z3	X4	Y4	Z4	X5	Y5	Z5	X6	Y6	Z6	X7	Y7	Z7	X8	Y8	Z8	X9	Y9	Z9	X10	Y10	Z10	X11	Y11	Z11	X12	Y12	Z12	X13	Y13	Z13	X14	Y14	Z14	X15	Y15	Z15	X16	Y16	Z16	X17	Y17	Z17	X18	Y18	Z18	X19	Y19	Z19	X20	Y20	Z20	X21	Y21	Z21	X22	Y22	Z22	X23	Y23	Z23	X24	Y24	Z24	X25	Y25	Z25	X26	Y26	Z26	X27	Y27	Z27	X28	Y28	Z28	X29	Y29	Z29	X30	Y30	Z30	X31	Y31	Z31	X32	Y32	Z32	X33	Y33	Z33	X34	Y34	Z34	X35	Y35	Z35	X36	Y36	Z36	X37	Y37	Z37	X38	Y38	Z38	X39	Y39	Z39	X40	Y40	Z40	X41	Y41	Z41	X42	Y42	Z42	X43	Y43	Z43	X44	Y44	Z44	X45	Y45	Z45	X46	Y46	Z46	X47	Y47	Z47	X48	Y48	Z48	X49	Y49	Z49	X50	Y50	Z50	X51	Y51	Z51	X52	Y52	Z52	X53	Y53	Z53	X54	Y54	Z54	

378	3.77	-445.7001037597656	992.6048583984375	-484.5812377929688	-319.7575378417969	961.2020874023438	-365.6409912109375	-380.1685485839844	1047.5771484375	-403.4508361816406	-553.8604736328125	1225.445922851562	-228.5263214111328	-359.4180603027344	1163.210693359375	-409.2792663574219	-379.6377868652344	1407.72509765625	-366.0167236328125	-503.2984924316406	1325.11474609375	-269.6070251464844	-392.6162109375	1271.604370117188	-459.2208251953125	-297.1017150878906	1370.311889648438	-298.9416198730469	-334.9562683105469	1374.640502929688	-202.1439361572266	-278.2106628417969	1256.682495117188	-153.2576904296875	-302.6777954101562	1053.698120117188	-122.1572036743164	-272.4913635253906	1032.198852539062	-199.6261901855469	-443.6065063476562	863.01171875	-111.8716125488281	-387.9518737792969	838.6853637695312	-72.32080841064453	-333.3547058105469	956.6863403320312	-100.5365829467773	-495.36376953125	684.3751220703125	-90.35935974121094	-415.3599853515625	756.6119995117188	-64.00930023193359	-478.8240661621094	774.7182006835938	-72.44840240478516	-534.7567749023438	1389.647338867188	-440.494384765625	-572.3036499023438	1340.68310546875	-501.0808715820312	-570.7506103515625	1088.118774414062	-593.2224731445312	-496.9108581542969	1074.106811523438	-534.8910522460938	-621.3609008789062	847.1649169921875	-550.075927734375	-609.9761352539062	860.95361328125	-634.2673950195312	-591.4926147460938	1020.569458007812	-606.659423828125	-658.56982421875	736.8399047851562	-586.3544921875	-631.7156372070312	753.619384765625	-649.5321655273438	-474.3387145996094	1572.427856445312	-393.9807434082031	-468.0019836425781	1592.101440429688	-181.3429260253906	-545.4017944335938	1594.4697265625	-234.3042755126953	-353.7439575195312	1558.619995117188	-312.3986511230469	-300.0300903320312	900.62939453125	-255.6188201904297	-618.1812744140625	952.5741577148438	-345.3777160644531	-426.1242370605469	917.3426513671875	-183.5472259521484	-404.0199279785156	442.5526123046875	-231.1646423339844	-376.3139343261719	579.8920288085938	-224.679443359375	-178.0832214355469	220.8171844482422	-533.1618041992188	-286.9979248046875	320.4482116699219	-377.6686096191406	-281.6512756347656	38.19053268432617	-555.6497192382812	-273.6615295410156	102.7225799560547	-599.6881103515625	-204.8954010009766	101.1478729248047	-512.9024658203125	-200.3994750976562	266.3312377929688	-587.8609008789062	-679.0125122070312	496.1667175292969	-382.9490356445312	-666.2679443359375	756.87939453125	-423.0303344726562	-663.7249755859375	40.35259246826172	-446.1096801757812	-689.4904174804688	368.9721069335938	-369.6128540039062	-683.8193969726562	47.27246856689453	-244.0791931152344	-627.764892578125	47.31293869018555	-283.4249877929688	-719.2053833007812	33.94594573974609	-355.7604675292969	-598.5298461914062	39.71353912353516	-476.0517272949219	-628.7083740234375	668.0342407226562	-597.7770385742188	-593.790771484375	958.6000366210938	-480.9225158691406	nan	nan	nan	
379	3.78	-453.1234436035156	993.8473510742188	-479.33642578125	-325.3740234375	961.89892578125	-362.5995788574219	-387.3902587890625	1048.650024414062	-399.5150756835938	-557.844970703125	1225.5185546875	-220.4396514892578	-367.2606811523438	1165.222412109375	-405.77880859375	-387.333251953125	1409.544921875	-360.9403076171875	-508.63720703125	1325.455688476562	-262.2004089355469	-402.2127990722656	1273.76953125	-454.5677185058594	-303.5299377441406	1371.894897460938	-295.6419067382812	-339.4371032714844	1375.6396484375	-197.9891510009766	-281.3313903808594	1257.647705078125	-150.7604522705078	-303.872802734375	1054.387573242188	-119.9381561279297	-274.7564392089844	1033.6923828125	-198.0615081787109	-438.6575927734375	858.4599609375	-110.5289001464844	-382.2645263671875	836.47265625	-70.78715515136719	-331.8577880859375	956.3825073242188	-98.63379669189453	-482.6448364257812	677.5584716796875	-90.75619506835938	-406.1567993164062	753.1217651367188	-63.05416107177734	-470.3099975585938	768.3538208007812	-72.08676147460938	-544.3786010742188	1391.1171875	-431.8628234863281	-583.6614990234375	1342.080932617188	-491.7176513671875	-586.4072265625	1088.387939453125	-582.265869140625	-510.4966735839844	1074.75439453125	-526.5763549804688	-638.2171020507812	848.8480224609375	-533.0582275390625	-628.7240600585938	860.5662231445312	-617.8538208007812	-607.7966918945312	1020.488037109375	-594.0393676757812	-678.875244140625	738.6948852539062	-566.0167236328125	-652.966552734375	753.37451171875	-630.1015625	-482.7922058105469	1573.599487304688	-387.0229187011719	-473.0177612304688	1593.158203125	-174.5064697265625	-551.2054443359375	1595.43115234375	-226.1797637939453	-360.8060607910156	1560.0048828125	-307.4493103027344	-303.9072265625	901.4879760742188	-252.7565307617188	-623.769775390625	953.162109375	-337.5564270019531	-428.9421691894531	918.2562255859375	-178.8785095214844	-416.4967651367188	444.8836975097656	-216.0919342041016	-385.11181640625	581.6557006835938	-214.0691680908203	-196.8496398925781	225.8773498535156	-524.0272827148438	-303.4644470214844	323.9187316894531	-364.7321472167969	-300.7764892578125	41.61793518066406	-537.816650390625	-294.8847045898438	105.4562683105469	-584.278076171875	-222.7911834716797	107.0036849975586	-499.6437072753906	-221.1304473876953	269.934814453125	-579.2200317382812	-681.344970703125	495.5333251953125	-378.6661071777344	-671.5018920898438	757.0245971679688	-415.5641174316406	-663.2734985351562	40.99763870239258	-445.642333984375	-690.6714477539062	368.1666259765625	-366.349365234375	-683.5694580078125	46.5206413269043	-243.5096893310547	-627.4242553710938	46.71884155273438	-282.8494873046875	-718.7914428710938	34.26965713500977	-355.4227294921875	-598.119873046875	40.13964080810547	-475.6850891113281	-650.6251831054688	668.8811645507812	-576.3755493164062	-601.2504272460938	959.45556640625	-473.4644470214844	nan	nan	nan	
380	3.79	-460.4283752441406	994.88720703125	-474.0486755371094	-330.9296264648438	962.5827026367188	-359.5496826171875	-394.4508972167969	1049.639892578125	-395.6145629882812	-561.5960083007812	1225.506469726562	-212.4323883056641	-375.0040588378906	1167.179077148438	-402.2914428710938	-394.8387145996094	1411.286743164062	-355.8705749511719	-513.688232421875	1325.677978515625	-254.8234252929688	-411.6276550292969	1275.86767578125	-449.8392028808594	-309.8383483886719	1373.415161132812	-292.376220703125	-343.7298583984375	1376.534790039062	-193.8857421875	-284.1202392578125	1258.522094726562	-148.5064849853516	-304.5432739257812	1055.0224609375	-118.1970672607422	-276.7481994628906	1035.112670898438	-197.0254211425781	-433.3323059082031	854.3067016601562	-109.4625091552734	-376.1774291992188	834.5450439453125	-69.71482849121094	-329.807861328125	956.1057739257812	-97.20494842529297	-469.7941589355469	671.599853515625	-91.12540435791016	-396.6876525878906	750.1438598632812	-62.45010757446289	-461.3789367675781	762.6373901367188	-71.81886291503906	-553.758056640625	1392.45361328125	-423.1509094238281	-594.7408447265625	1343.296997070312	-482.2149963378906	-602.0242309570312	1088.463500976562	-570.8509521484375	-524.099365234375	1075.130615234375	-517.9295043945312	-654.8308715820312	850.4982299804688	-515.5496826171875	-647.4266357421875	860.2076416015625	-600.843994140625	-624.060302734375	1020.302429199219	-580.9490356445312	-698.5321044921875	740.5242919921875	-545.0297241210938	-673.9295654296875	753.1983642578125	-610.025390625	-491.1004028320312	1574.7412109375	-379.8902587890625	-477.8060913085938	1593.992431640625	-167.5755462646484	-556.7910766601562	1596.193725585938	-217.8767242431641	-367.7147827148438	1561.337890625	-302.4046936035156	-307.6614379882812	902.4617919921875	-249.8366546630859	-629.21533203125	953.7365112304688	-329.7080688476562	-431.6860656738281	919.240966796875	-174.2919769287109	-428.7782287597656	447.6008605957031	-200.7921752929688	-393.8008117675781	583.7372436523438	-203.2019958496094	-215.806884765625	229.2389678955078	-513.8173217773438	-319.9152526855469	326.5973510742188	-351.1312255859375	-321.6270446777344	44.99914932250977	-519.3411254882812	-316.8589782714844	107.5508804321289	-568.1613159179688	-242.2876586914062	111.5889358520508	-485.285888671875	-241.3768005371094	272.0028991699219	-569.5482788085938	-683.568359375	494.8266906738281	-374.242919921875	-676.62548828125	757.053955078125	-407.906494140625	-662.8037109375	41.67023086547852	-445.167236328125	-691.7288208007812	367.3096618652344	-362.9600219726562	-683.3204956054688	45.87908172607422	-242.9691467285156	-627.0289306640625	46.1422004699707	-282.2813415527344	-718.380615234375	34.62176895141602	-355.088134765625	-597.6498413085938	40.55524063110352	-475.2893676757812	-671.7179565429688	669.856201171875	-554.3810424804688	-608.6441040039062	960.185302734375	-465.9737548828125	nan	nan	nan	
381	3.8	-467.6727905273438	995.7354125976562	-468.735595703125	-336.4489135742188	963.2523193359375	-356.4913635253906	-401.3556518554688	1050.569091796875	-391.7435913085938	-565.1378173828125	1225.46435546875	-204.4938354492188	-382.6652526855469	1169.063720703125	-398.7814331054688	-402.1616516113281	1412.932983398438	-350.8125915527344	-518.4841918945312	1325.826904296875	-247.4979858398438	-420.8434753417969	1277.885375976562	-445.0471801757812	-316.0205383300781	1374.880004882812	-289.1476135253906	-347.8315734863281	1377.35302734375	-189.8444976806641	-286.5816955566406	1259.348510742188	-146.4880981445312	-304.7127685546875	1055.637817382812	-116.9282150268555	-278.5007934570312	1036.495239257812	-196.4919738769531	-427.6935119628906	850.567626953125	-108.6132202148438	-369.7074890136719	832.8910522460938	-69.13322448730469	-327.2234191894531	955.8670654296875	-96.257080078125	-456.9194030761719	666.4776611328125	-91.41510772705078	-386.9871215820312	747.6480102539062	-62.24255752563477	-452.1003723144531	757.5758666992188	-71.57663726806641	-562.88037109375	1393.652954101562	-414.3864440917969	-605.5029296875	1344.323852539062	-472.6025085449219	-617.5444946289062	1088.342651367188	-558.9618530273438	-537.7006225585938	1075.208984375	-508.8768615722656	-671.1676635742188	852.1079711914062	-497.5819091796875	-666.0336303710938	859.8843994140625	-583.2625122070312	-640.2422485351562	1020.025085449219	-567.3726806640625	-717.525390625	742.3214111328125	-523.4535522460938	-694.5487670898438	753.090087890625	-589.34521484375	-499.2508239746094	1575.843994140625	-372.5919189453125	-482.3591613769531	1594.626708984375	-160.5596313476562	-562.1515502929688	1596.769165039062	-209.4140625	-374.466796875	1562.61279296875	-297.2646484375	-311.3358154296875	903.5438842773438	-246.8760986328125	-634.5263671875	954.31396484375	-321.8205261230469	-434.35205078125	920.3306274414062	-169.8065338134766	-440.7279663085938	450.7079162597656	-185.3246459960938	-402.3333435058594	586.1416015625	-192.0965423583984	-234.8652954101562	230.7938385009766	-502.4353942871094	-336.170166015625	328.42138671875	-336.8956909179688	-344.0331115722656	48.13463592529297	-500.4216003417969	-339.4398803710938	109.0285415649414	-551.4589233398438	-263.1436767578125	114.7310028076172	-469.9412536621094	-261.0159912109375	272.5020446777344	-558.752197265625	-685.7002563476562	494.0573120117188	-369.751708984375	-681.6251831054688	756.9666137695312	-400.1294860839844	-662.33056640625	42.34782028198242	-444.6980590820312	-692.6830444335938	366.41748046875	-359.5170288085938	-683.07763671875	45.33706665039062	-242.4608612060547	-626.5986938476562	45.58456420898438	-281.7391967773438	-717.9832153320312	34.9910888671875	-354.76171875	-597.1360473632812	40.94630813598633	-474.8845825195312	-691.98388671875	670.9375	-531.8540649414062	-615.9826049804688	960.7811279296875	-458.439453125	nan	nan	nan	
